<svg data-name="Layer 1" xmlns="http://www.w3.org/2000/svg" viewBox="0 0 320 400"><title>Artboard 2</title><path d="M217.142 0h1.539c.246.536.408.883.449.967a47.875 47.875 0 0 1 1.945 4.824 41.869 41.869 0 0 0 2.335 5.614 127.72 127.72 0 0 1 7.09 16.665c2.97 8.042 5.768 15.62 10.7 20.116 3.291 3 3.488 9.238 3.678 15.273.139 4.383.27 8.522 1.557 11.335 2.2 4.8 3.816 5.326 5.69 5.932a9.656 9.656 0 0 1 4.026 2.251c1.072.975 1.681 2.985 2.218 4.759.655 2.167 1.272 4.212 2.66 4.49 1.2.251 2.737-.91 4.85-3.627.393-.5.829-1.049 1.291-1.626l.1-.129c2.952-3.681 6.995-8.721 7.894-13.088a27.617 27.617 0 0 0 .444-2.959c.216-2.019.372-3.474 3.142-9.675.346-.777.8-1.628 1.32-2.612a41.711 41.711 0 0 0 5.649-19.689c.14-4.3-1.854-6.705-3.964-9.246l-.112-.135c-.418-.506-.848-1.024-1.26-1.562l-.1-.188c-.325-.905-.542-4.667-.772-9.124-.249-4.813-.424-7.787-.763-8.5A77.735 77.735 0 0 1 276.03 0h1.434a74.161 74.161 0 0 0 2.548 9.464c.444.931.591 3.092.9 9.029.128 2.493.392 7.593.664 8.631.378.489.77.962 1.152 1.423l.1.126c2.089 2.516 4.45 5.359 4.293 10.194a42.95 42.95 0 0 1-5.808 20.292c-.515.97-.956 1.8-1.282 2.534-2.68 6-2.826 7.362-3.028 9.249a28.883 28.883 0 0 1-.465 3.1c-.967 4.7-5.132 9.889-8.173 13.68l-.1.128c-.458.573-.891 1.113-1.279 1.612-2.256 2.9-3.978 4.2-5.61 4.2a3.176 3.176 0 0 1-.622-.062c-2.209-.444-2.979-2.992-3.724-5.457-.461-1.521-1.034-3.415-1.82-4.13a8.237 8.237 0 0 0-3.51-1.953c-2.008-.649-4.082-1.319-6.536-6.683-1.4-3.068-1.539-7.345-1.683-11.872-.181-5.744-.369-11.685-3.222-14.283-5.187-4.727-8.042-12.46-11.066-20.647a126.856 126.856 0 0 0-7.013-16.5 42.862 42.862 0 0 1-2.414-5.787 46.984 46.984 0 0 0-1.89-4.7c-.058-.118-.332-.707-.734-1.588zM0 98.551a50.716 50.716 0 0 0 8.794 1.771 53.316 53.316 0 0 0 5.978.34c5.739 0 11.729-.968 15.321-3.689a181.49 181.49 0 0 0 3.271-2.551c4.96-3.925 9.245-7.314 15.66-8.327a24.825 24.825 0 0 1 4.776-.072 22.2 22.2 0 0 0 6.812-.38 8.469 8.469 0 0 0 5.627-4.033 8.912 8.912 0 0 0 .269-6.87c-5.9-19.5 1.692-23.652 7.237-26.687 2.685-1.47 5.46-2.988 5.46-6.063a5.389 5.389 0 0 0-.044-.68c-.773-6.013-6.9-6.165-12.309-6.3-3.338-.083-6.79-.17-9-1.442-6.9-3.969-11.521-7.94-14.7-16.5A147.87 147.87 0 0 1 38.187 0h-1.44a150.7 150.7 0 0 0 5.092 17.553c3.329 8.957 8.137 13.1 15.316 17.227 2.518 1.45 6.15 1.541 9.671 1.63 5.312.132 10.328.257 10.948 5.077a3.962 3.962 0 0 1 .032.5c0 2.245-2.193 3.445-4.732 4.835-5.966 3.265-14.137 7.735-7.905 28.321A7.583 7.583 0 0 1 65 80.958a7.138 7.138 0 0 1-4.756 3.332 21.166 21.166 0 0 1-6.389.332 25.619 25.619 0 0 0-5.049.089c-6.778 1.069-11.2 4.564-16.312 8.612-1.042.826-2.119 1.68-3.246 2.532-4.557 3.453-13.475 3.852-20.295 3.075A49.027 49.027 0 0 1 0 97.1zm300.879 298.632a29.9 29.9 0 0 1-3.291 2.817h2.253a25.65 25.65 0 0 0 2.039-1.839c3.524-3.61 8.849-9.065 13.814-11.522a68.465 68.465 0 0 0 4.305-2.3V382.7c-1.51.928-3.138 1.8-4.926 2.681-5.173 2.565-10.604 8.119-14.194 11.802zm-1.346-182.69c-1.151 1.281-2.061 2.293-2.611 2.984-6.02 7.567-8.1 15.838-9.785 22.509-.873 3.461-1.626 6.449-2.72 8.15q-.7 1.091-1.432 2.21c-5.2 8-11.1 17.076-11.479 28.179a121.59 121.59 0 0 0-.087 4.283c0 4.237.3 6.545 1.918 7.4 1.6.837 3.083-.337 4.8-1.7 4.257-3.363 10.691-8.449 22.5 3.491a4.3 4.3 0 0 0 3.188 1.253 6.608 6.608 0 0 0 .7-.038c3.987-.431 9.916-4.712 15.47-9.729v-1.965c-5.649 5.241-11.785 9.887-15.62 10.3a3.143 3.143 0 0 1-2.74-.807c-5.9-5.958-10.689-7.854-14.544-7.854-4.445 0-7.639 2.523-9.824 4.25-1.638 1.293-2.528 1.95-3.283 1.556-.842-.444-1.17-2.172-1.17-6.161 0-1.2.028-2.589.086-4.234.368-10.715 6.151-19.613 11.253-27.463q.73-1.121 1.436-2.217c1.217-1.895 2-4.986 2.906-8.591 1.642-6.516 3.686-14.624 9.517-21.955.523-.658 1.42-1.656 2.556-2.919l.133-.148c4.518-5.021 8.974-10.141 9.524-12.758a5.713 5.713 0 0 1 2.429-3.86c1.786-1.159 4.386-1.331 7.339-1.046v-1.4c-3.18-.291-6.031-.07-8.1 1.273a7.133 7.133 0 0 0-3.037 4.747c-.519 2.468-6.163 8.74-9.2 12.119zm-39.406 131.7c-4.909.156-9.89 6.414-16.151 20.289-4.743 10.511-10.973 13.939-13.021 15.067l-.529.29a39.608 39.608 0 0 0-17.391 17.93c-.031.067-.065.149-.1.232h1.544a38.278 38.278 0 0 1 16.621-16.935l.534-.293c2.148-1.183 8.687-4.781 13.622-15.717 5.851-12.965 10.731-19.332 14.92-19.467h.135c2.117 0 4.034 1.609 5.7 4.784a18 18 0 0 1 2.155 8.547 36.285 36.285 0 0 1-1.555 9.14 38 38 0 0 0-1.542 8.6c-.127 5.077-6.338 8.141-11.825 10.847a41.957 41.957 0 0 0-6.146 3.427c-2.82 2.114-5.671 4.561-8.491 7.063h2.115c2.4-2.11 4.827-4.152 7.216-5.942a41.2 41.2 0 0 1 5.932-3.3c5.836-2.878 12.451-6.141 12.6-12.063a36.953 36.953 0 0 1 1.5-8.29 37.328 37.328 0 0 0 1.6-9.489 19.359 19.359 0 0 0-2.316-9.2c-1.979-3.749-4.369-5.58-7.127-5.522zM148.541 1.285l.184.313c.576.976 1.075 1.82 1.458 2.484a29.5 29.5 0 0 0 4.87 5.839c1.038 1.05 2.112 2.136 3.073 3.295 4.1 4.944 1.637 24.048.314 34.311-.368 2.845-.658 5.092-.693 6.148-.131 4.016 1.208 10.218 2.507 14.28 1.553 4.856 12.808 18.088 15.5 20.779 16.565 16.568 11.948 45.851 10.431 55.475-.191 1.213-.357 2.26-.4 2.815-.192 2.578.649 5.175 1.814 8.77 1.892 5.828 4.75 14.636 4.75 30.063 0 .78-.007 1.574-.022 2.39-.043 2.321-2.183 7.98-4.081 13-1.449 3.838-2.948 7.807-3.192 9.5-.661 4.609-.271 8.9.143 13.453.221 2.445.45 4.974.5 7.553.319 16.655-3.428 29.745-11.795 41.194-7.7 10.541-18.8 18.82-29.532 26.827-6.388 4.765-15.1 5.022-23.478 4.876-7.955-.14-15.729-.045-23.391 2.609a55.064 55.064 0 0 0-7.893 3.71c-1.22.654-2.6 1.4-4 2.074a29.2 29.2 0 0 1-7.3 2.153c-.977.2-1.99.4-3 .647a60.551 60.551 0 0 1-19.7 1.41c-1.579-.187-3.032-.418-4.5-.653-5.792-.927-10.364-1.658-16.007 2.423a56.27 56.27 0 0 1-18.64 8.905 55.65 55.65 0 0 0-10.28 4.058c-2.019.955-4.072 1.925-6.178 2.739v1.493c2.324-.866 4.572-1.922 6.777-2.966a54.63 54.63 0 0 1 10.016-3.964 57.732 57.732 0 0 0 19.125-9.13c5.175-3.741 9.069-3.119 15.033-2.164 1.418.227 2.886.46 4.494.65a62.011 62.011 0 0 0 20.2-1.441c.991-.243 1.984-.441 2.962-.638a30.262 30.262 0 0 0 7.614-2.263c1.422-.689 2.818-1.439 4.049-2.1a54 54 0 0 1 7.689-3.621c7.447-2.578 15.087-2.674 22.909-2.531 8.619.146 17.6-.126 24.339-5.153 10.816-8.069 22-16.413 29.825-27.124 8.557-11.709 12.39-25.07 12.064-42.048-.049-2.629-.28-5.182-.505-7.673-.4-4.453-.787-8.659-.149-13.106.222-1.541 1.693-5.437 3.126-9.23 2.022-5.35 4.113-10.88 4.161-13.443.016-.824.023-1.628.023-2.416 0-15.648-2.9-24.582-4.819-30.494-1.116-3.442-1.922-5.93-1.75-8.233.038-.5.207-1.568.386-2.7 1.544-9.8 6.246-39.609-10.824-56.682-2.471-2.469-13.725-15.736-15.157-20.215-1.264-3.953-2.567-9.96-2.441-13.809.033-.989.334-3.318.683-6.015 1.954-15.165 3.515-30.389-.625-35.384-1-1.206-2.1-2.314-3.162-3.393a28.432 28.432 0 0 1-4.646-5.551c-.384-.666-.886-1.516-1.464-2.5l-.184-.312-.344-.569h-1.625zm21.882 1.206c1.03 1.042 2.095 2.119 3.049 3.27 5.226 6.306 7.687 17.147 7.808 25.094a23.221 23.221 0 0 1-1.539 7.353 24.583 24.583 0 0 0-1.532 6.77c-.132 4.009 1.207 10.213 2.506 14.28a33 33 0 0 0 7.307 12.7c1.526 1.663 3.323 3.382 5.061 5.045l.12.115c1.014.968 2.06 1.966 3.011 2.919 15.3 15.3 14.886 34.858 14.707 43.286a20.437 20.437 0 0 0 .087 3.834c.867 3.512 1.391 8.962.015 12.763-.479 1.327-1.023 2.519-1.549 3.671a22.312 22.312 0 0 0-2.439 7.988c-.444 5.83 1.123 13.161 4.791 22.411 1.751 4.417 3.135 7.906 3.135 11.872a19.737 19.737 0 0 1-1.409 7.068 28.534 28.534 0 0 1-2.446 4.66 21.725 21.725 0 0 0-2.84 5.965 86.843 86.843 0 0 0-1.637 9.411l-.329 2.334c-.662 4.613-.273 8.9.144 13.481.22 2.437.447 4.955.5 7.526.009.468.013.941.013 1.405 0 35.727-25.666 59.457-48.028 76.14-3.1 2.314-10.45 3.009-18.958 3.812-9.334.882-19.915 1.881-26.932 5.3-10.325 5.035-21.494 6.084-29.649 6.851-6.826.641-10.1 1.1-10.679 2.513-.229.563.044 1.347.838 2.392 5.061 6.671 12.875 7.432 20.432 8.166 9.892.965 19.235 1.876 19.235 17.022 0 10.354-11.375 18.574-20.515 25.18-5.185 3.748-10.082 7.287-11.428 10.271a26.859 26.859 0 0 1-2.7 4.637H80.3a28.451 28.451 0 0 0 2.254-4.061c1.193-2.645 5.943-6.078 10.972-9.713 9.4-6.792 21.095-15.245 21.095-26.314 0-16.417-10.891-17.479-20.5-18.415-7.257-.706-14.761-1.437-19.452-7.619a3.416 3.416 0 0 1-.615-1.059c.8-.793 6.42-1.319 9.472-1.605 8.262-.776 19.578-1.84 30.131-6.987 6.789-3.309 17.234-4.295 26.451-5.165 8.717-.823 16.246-1.535 19.663-4.083 22.625-16.879 48.594-40.913 48.591-77.263 0-.474 0-.955-.014-1.433-.05-2.62-.28-5.164-.506-7.676-.4-4.45-.787-8.654-.148-13.106l.325-2.344a85.9 85.9 0 0 1 1.607-9.259 20.7 20.7 0 0 1 2.679-5.581 29.641 29.641 0 0 0 2.559-4.891 21.107 21.107 0 0 0 1.5-7.564c0-4.233-1.5-8.012-3.233-12.388-3.587-9.049-5.124-16.176-4.7-21.79a21.213 21.213 0 0 1 2.317-7.514c.512-1.122 1.093-2.395 1.591-3.774 1.483-4.1.942-9.872.028-13.575a25.519 25.519 0 0 1-.046-3.547c.182-8.528.608-28.5-15.117-44.228a183.37 183.37 0 0 0-3.065-2.971l-.089-.085c-1.722-1.647-3.5-3.351-5-4.979a31.635 31.635 0 0 1-7.005-12.181c-1.265-3.957-2.568-9.965-2.441-13.808a23.562 23.562 0 0 1 1.463-6.383 24.619 24.619 0 0 0 1.607-7.8c-.124-8.193-2.686-19.4-8.129-25.969-.993-1.2-2.08-2.3-3.162-3.392C170.9.98 170.419.49 169.951 0h-1.9a68.074 68.074 0 0 0 2.372 2.491zm28.515 6.235c1.955 4.055 4.173 8.033 6.335 11.911 1.68 3.008 3.584 6.416 5.271 9.754.928 1.841 1.9 3.581 2.834 5.264l.07.126c2.8 5.027 5.452 9.775 6.429 16.025.392 2.509.567 5.189.736 7.786.342 5.267.7 10.714 2.847 15.526a35.429 35.429 0 0 0 2.8 4.853 39.206 39.206 0 0 1 2.424 4.073c1.893 3.854 2.478 8.37 2.8 12.279.056.68.11 1.417.167 2.2l.009.129c.614 8.386 1.541 21.059 8.106 26.184a10.459 10.459 0 0 0 6.615 2.2 15.525 15.525 0 0 0 3.521-.43c4.078-.949 7.624-3.652 11.059-6.271a60.746 60.746 0 0 1 4.947-3.528c1.015-.624 2.055-1.227 3.06-1.811l.134-.077c5.663-3.279 11.012-6.376 13.587-13.331a94.45 94.45 0 0 0 3.81-15.76c.384-2.106.781-4.286 1.219-6.358 1.269-5.985 4.059-10.806 7.014-15.913l.056-.1a253.559 253.559 0 0 0 1.986-3.477c8.777-15.762 11.658-30.846 9.34-48.911a773.7 773.7 0 0 1-1.078-8.951l-.248-2.117h-.5l.254 2.176c.371 3.189.708 6.065 1.079 8.957 2.3 17.951-.56 32.941-9.281 48.6-.658 1.181-1.331 2.344-1.982 3.47l-.058.1c-2.974 5.14-5.783 9.993-7.068 16.057-.439 2.079-.837 4.262-1.223 6.376a94.03 94.03 0 0 1-3.786 15.672c-2.513 6.786-7.786 9.84-13.369 13.072l-.134.077c-1.008.585-2.051 1.19-3.071 1.817a61.057 61.057 0 0 0-5 3.562c-3.387 2.582-6.889 5.253-10.862 6.178-3.87.9-7.138.336-9.714-1.676-6.391-4.988-7.308-17.528-7.915-25.826l-.01-.128c-.057-.782-.111-1.521-.167-2.2-.326-3.956-.919-8.529-2.849-12.459a39.724 39.724 0 0 0-2.455-4.126 35.145 35.145 0 0 1-2.766-4.782c-2.113-4.731-2.464-10.133-2.8-15.36-.17-2.6-.345-5.295-.741-7.827-.991-6.337-3.661-11.124-6.487-16.191l-.07-.125c-.935-1.679-1.9-3.414-2.824-5.245-1.691-3.348-3.6-6.762-5.3-9.8-2.142-3.841-4.356-7.812-6.3-11.854C198.055 5.743 196.962 2.84 195.9 0h-.534c1.081 2.894 2.199 5.877 3.572 8.727zm26.182 338.813c-1.332 1.244-2.59 2.418-3.617 3.512-3.915 4.167-15.146 16.261-18.974 20.444l-.332.364c-4.381 4.786-11 12.02-14.17 17.594A66.017 66.017 0 0 1 180.608 400h.654a66.559 66.559 0 0 0 7.2-10.3c3.14-5.524 9.738-12.733 14.105-17.5l.332-.364c3.826-4.182 15.055-16.273 18.969-20.439 1.016-1.081 2.268-2.25 3.593-3.488 5.4-5.044 12.8-11.951 12.8-21.256a19.655 19.655 0 0 0-.956-5.937c-1.646-5.2-4.854-5.379-7.437-5.524-2.051-.116-3.67-.208-3.67-2.78a8.1 8.1 0 0 1 .083-1.095c.668-4.846 3.39-8.431 6.838-12.973 5.942-7.827 14.08-18.548 19.329-43.955.924-4.476 4.493-10.608 7.954-16.557 2.9-4.988 5.647-9.7 6.807-13.316 1.749-5.451 5.107-8.715 8.673-12.18a43.47 43.47 0 0 0 7.348-8.566c1.286-2.1 2.825-4.944 4.454-7.953l-.22-.119.265.036c3.972-7.331 8.474-15.642 12.571-19.744 3.1-3.106 6.26-3.2 9.6-3.3a18.143 18.143 0 0 0 8.174-1.606c.674-.337 1.311-.7 1.925-1.076v-.584a24.5 24.5 0 0 1-2.149 1.212 17.741 17.741 0 0 1-7.965 1.554c-3.445.1-6.7.2-9.941 3.443-4.149 4.154-8.669 12.5-12.657 19.859l-.045.083c-1.626 3-3.163 5.839-4.441 7.93a43.1 43.1 0 0 1-7.28 8.479c-3.6 3.5-7 6.806-8.791 12.376-1.143 3.563-3.873 8.253-6.772 13.235-3.472 5.965-7.061 12.133-8 16.688-5.226 25.3-13.324 35.965-19.239 43.757-3.491 4.6-6.248 8.229-6.934 13.2a8.543 8.543 0 0 0-.088 1.163c0 3.044 2.106 3.164 4.146 3.28 2.425.136 5.443.306 6.985 5.175a19.166 19.166 0 0 1 .933 5.786c-.003 9.091-7.308 15.914-12.641 20.895zm88.666 30.649l-.527.4c-3.054 2.344-6.327 4.374-9.492 6.338a111.838 111.838 0 0 0-9.833 6.6 46.94 46.94 0 0 0-8.322 8.474h.641a46.051 46.051 0 0 1 7.988-8.074 111.542 111.542 0 0 1 9.79-6.572c3.175-1.971 6.458-4.007 9.532-6.365l.55-.42a53.881 53.881 0 0 0 5.887-4.975v-.733a50.077 50.077 0 0 1-6.214 5.327zm-74.98 12.662c-1.038-.308-2.274-1.261-2.274-4.061 0-2.693 3.736-5.879 7.03-8.689a28.285 28.285 0 0 0 3.606-3.386 39.854 39.854 0 0 0 3.236-5.835c2.528-5.152 5.148-10.479 9.211-9.523 1.319.31 2.892 1.384 2.892 4.745 0 3.815-2.026 8.863-2.872 10.325-3.922 6.793-14.383 16.562-19.8 16.562a3.652 3.652 0 0 1-1.03-.137zm.142-.479c2.127.62 5.888-1.148 10.322-4.869a47.758 47.758 0 0 0 9.933-11.325 25.61 25.61 0 0 0 2.8-10.075c0-2.4-.867-3.874-2.506-4.259a3.546 3.546 0 0 0-.809-.1c-3.251 0-5.58 4.749-7.839 9.354a40.235 40.235 0 0 1-3.284 5.913 28.361 28.361 0 0 1-3.684 3.468c-3.212 2.74-6.853 5.846-6.854 8.309.004 1.975.666 3.213 1.92 3.584zm78.375 3.173a42.282 42.282 0 0 0-5.335 5.6c-.223.29-.461.573-.7.856h.646c.15-.184.307-.365.451-.552a41.9 41.9 0 0 1 5.281-5.54c.757-.7 1.533-1.418 2.336-2.209v-.708a89.098 89.098 0 0 1-2.68 2.553zM315.869 400h.6q.448-.69.885-1.38c.838-1.318 1.7-2.651 2.649-3.91v-.822a51.515 51.515 0 0 0-3.079 4.476c-.349.544-.698 1.092-1.055 1.636zM188.209 10.521c2.118 8.479 6.827 16.325 11.38 23.913l.036.061c1.648 2.747 3.354 5.588 4.86 8.353.907 1.663 2.008 3.314 3.206 5.113 2.1 3.155 4.279 6.417 5.177 9.653a60.374 60.374 0 0 1 1.732 15.343c0 .818-.01 1.636-.018 2.454a74.626 74.626 0 0 0 .649 13.2 26.323 26.323 0 0 0 3.331 8.263 30.3 30.3 0 0 1 3.17 7.316c1.771 7.17 1.506 15.979 1.271 23.749-.072 2.368-.146 4.815-.154 7.163 0 1.712.985 3.393 2.85 4.862 3.4 2.682 9.371 4.4 14.235 4.4a14.337 14.337 0 0 0 4.219-.558c3.293-1.031 5.639-3.985 7.914-6.852 1.761-2.221 3.582-4.517 5.788-5.794a48.4 48.4 0 0 1 8.284-3.52 63.163 63.163 0 0 0 6.427-2.535c5.244-2.516 9.2-6.619 12.816-13.306a66.116 66.116 0 0 0 4.144-9.933c.65-1.837 1.322-3.735 2.117-5.662 2.075-5.031 4.735-7.642 8.1-10.945a125.077 125.077 0 0 0 3.123-3.141c9.927-10.436 14.81-21.1 14.925-32.589.122-11.3-1.55-21.451-3.582-32.605-.25-1.368-.539-2.772-.846-4.261l-.014-.067A81.171 81.171 0 0 1 311.432 0h-.5a81.386 81.386 0 0 0 1.928 12.7l.014.067c.306 1.484.595 2.887.843 4.249 2.027 11.128 3.695 21.255 3.574 32.51-.114 11.361-4.951 21.91-14.787 32.25a127.438 127.438 0 0 1-3.11 3.128c-3.409 3.345-6.1 5.986-8.214 11.111-.8 1.939-1.474 3.844-2.135 5.711a65.618 65.618 0 0 1-4.1 9.837c-3.566 6.588-7.45 10.626-12.593 13.093a62.716 62.716 0 0 1-6.389 2.519 48.755 48.755 0 0 0-8.355 3.554c-2.288 1.325-4.139 3.66-5.936 5.926-2.221 2.8-4.517 5.69-7.664 6.677-4.86 1.523-13.606-.306-17.995-3.763-1.74-1.371-2.659-2.917-2.659-4.485.008-2.323.083-4.768.154-7.132.235-7.8.5-16.648-1.286-23.884A30.713 30.713 0 0 0 219 96.623a25.889 25.889 0 0 1-3.273-8.1 74.264 74.264 0 0 1-.642-13.107c.008-.819.015-1.639.018-2.457a60.862 60.862 0 0 0-1.75-15.479c-.919-3.314-3.117-6.61-5.275-9.847-1.159-1.74-2.254-3.383-3.15-5.026-1.511-2.773-3.219-5.619-4.87-8.37l-.214.128.178-.188c-4.535-7.557-9.223-15.37-11.323-23.777A48.5 48.5 0 0 0 184.97 0h-.565a47.754 47.754 0 0 1 3.804 10.521zm42.748-8.06c1.611 1.694 4.172 6.976 6.889 12.579 3.716 7.658 7.927 16.338 11.542 19.9 4.4 4.331 5.135 9.376 5.788 13.828.383 2.611.744 5.077 1.846 6.952 2.493 4.245 3.359 9.649 4.055 13.993.663 4.129 1.1 6.856 2.71 7.257a1.6 1.6 0 0 0 .39.049c1.1 0 2.339-1.127 4.146-3.724 1.388-1.994 1.99-4.65 2.629-7.469.674-2.974 1.372-6.049 3.065-8.135 5.917-7.3 2.94-11.517-.828-16.859l-.04-.057c-.438-.621-.892-1.264-1.347-1.935a13.89 13.89 0 0 1-2.484-9.173c.025-2.506.05-5.1-2.038-8.22C264.336 17.049 255.256 4.873 249.1 0h-.819c6.076 4.5 15.562 17.217 18.578 21.727 2 3 1.978 5.508 1.954 7.945a14.3 14.3 0 0 0 2.571 9.451c.458.673.913 1.318 1.352 1.941l.041.058c3.646 5.169 6.526 9.252.848 16.256-1.767 2.176-2.478 5.309-3.166 8.345-.626 2.763-1.218 5.373-2.55 7.288-1.835 2.636-3.07 3.705-4.005 3.476-1.291-.321-1.729-3.061-2.337-6.853-.7-4.384-1.577-9.841-4.119-14.167-1.052-1.79-1.406-4.21-1.782-6.772-.664-4.528-1.417-9.661-5.932-14.109-3.553-3.5-7.744-12.142-11.448-19.775-2.729-5.627-5.307-10.942-6.971-12.692A19.313 19.313 0 0 1 229.589 0h-.6a20.214 20.214 0 0 0 1.968 2.461zM207.167 3.8c.923 1.77 1.879 3.6 2.795 5.407 1.721 3.374 3.082 6.147 4.28 8.727.881 1.9 1.973 3.848 3.029 5.727a56.138 56.138 0 0 1 4.087 8.282q.245.7.481 1.427a82.939 82.939 0 0 1 2.627 12.261l.131.831c.288 1.815.586 3.691 1.039 5.462a28.84 28.84 0 0 0 2.466 6.438 23.668 23.668 0 0 0 2.846 4.015 50.05 50.05 0 0 1 1.829 2.327 21.149 21.149 0 0 1 3.121 5.913c1.636 4.935 2.012 10.888 2.378 16.68a90.374 90.374 0 0 0 1.173 11.327c1.274 6.478 5.2 10.713 10.769 11.622a7.014 7.014 0 0 1 3.049 1.538 5.76 5.76 0 0 0 3.425 1.5c1.313 0 2.944-.683 5.181-2.708.79-.716 1.606-1.474 2.463-2.268a97.362 97.362 0 0 1 7.823-6.773 168.35 168.35 0 0 0 3.561-2.69c2.4-1.875 5.308-4.534 6.531-8.5a16.078 16.078 0 0 0 .548-5.832 20.387 20.387 0 0 1 .053-3.292c1.509-12.745 7.614-27.709 10.222-34.1l.079-.193c.559-1.375.963-2.369 1.157-2.935 2.116-6.213 2.309-11.007 2.553-17.088.063-1.592.129-3.238.236-5.044a91 91 0 0 0-.156-10.8l-.01-.2c-.133-2.45-.259-4.766-.21-7.039.028-1.325.01-2.591-.028-3.833h-.5c.039 1.239.056 2.5.029 3.823-.049 2.291.077 4.615.211 7.076l.011.2a90.61 90.61 0 0 1 .156 10.744 256.578 256.578 0 0 0-.237 5.065c-.242 6.028-.433 10.79-2.526 16.934-.188.553-.59 1.541-1.146 2.908l-.079.193c-2.615 6.409-8.739 21.417-10.255 34.229a20.777 20.777 0 0 0-.057 3.37 15.665 15.665 0 0 1-.526 5.665c-1.182 3.831-4.02 6.422-6.361 8.251-1.143.9-2.284 1.745-3.55 2.683a98.193 98.193 0 0 0-7.888 6.829c-.833.772-1.649 1.528-2.437 2.243-4.29 3.884-6 2.628-7.979 1.169a7.384 7.384 0 0 0-3.26-1.626c-5.352-.873-9.127-4.964-10.359-11.224a90.524 90.524 0 0 1-1.167-11.3c-.366-5.789-.744-11.774-2.4-16.771a21.612 21.612 0 0 0-3.191-6.05c-.625-.856-1.274-1.649-1.852-2.356a23.313 23.313 0 0 1-2.784-3.922 28.356 28.356 0 0 1-2.428-6.322c-.446-1.748-.743-3.613-1.031-5.428l-.129-.821a83.405 83.405 0 0 0-2.646-12.337q-.237-.734-.485-1.437a56.472 56.472 0 0 0-4.124-8.36c-1.051-1.872-2.138-3.807-3.011-5.692-1.2-2.585-2.564-5.363-4.288-8.743a461.591 461.591 0 0 0-2.8-5.411c-.611-1.178-1.231-2.371-1.848-3.571h-.558a444.556 444.556 0 0 0 1.967 3.8zM0 31.343a42.016 42.016 0 0 1 8.567 7.092 24.958 24.958 0 0 1 2.682 3.765c1.286 2.073 2.5 4.031 4.926 5.526a30.234 30.234 0 0 0 10.043 4.16 14.3 14.3 0 0 0 2.782.322 3.633 3.633 0 0 0 3.031-1.116 3.02 3.02 0 0 0 .61-1.945 8.2 8.2 0 0 0-.558-2.7c-1.018-2.862-3.557-5.769-5.8-8.339a84.326 84.326 0 0 1-1.89-2.213 86.89 86.89 0 0 0-2.038-2.4 24.5 24.5 0 0 1-4.955-7.366 37.716 37.716 0 0 1-2.642-10.18A64.74 64.74 0 0 0 10.981 0h-.534a64.3 64.3 0 0 1 3.82 16.008 38.162 38.162 0 0 0 2.673 10.306 24.943 24.943 0 0 0 5.041 7.521c.58.665 1.3 1.493 2.018 2.377a83.487 83.487 0 0 0 1.908 2.234c2.21 2.53 4.716 5.4 5.7 8.171a7.845 7.845 0 0 1 .528 2.529 2.5 2.5 0 0 1-.5 1.633c-.792.992-2.482 1.188-5.32.614a29.765 29.765 0 0 1-9.879-4.1c-2.326-1.434-3.51-3.343-4.765-5.366A25.372 25.372 0 0 0 8.938 38.1 42.361 42.361 0 0 0 0 30.764zm125.446-15.181a149.9 149.9 0 0 1 18.62 27.395 16.658 16.658 0 0 1 .6 12.231c-2.407 6.405-2.181 11.471.836 18.689l1.03 2.473c3.71 8.915 7.546 18.133 12.684 26.1 2.826 4.379 3.882 18.315 3.883 26.071v.377c-.018 3.271-.873 7.306-1.785 11.61-1.7 8.013-3.457 16.3-.209 21.215 4.8 7.276-.111 14.131-4.452 20.188-3.581 5-6.963 9.716-4.831 14.126a35.812 35.812 0 0 1 1.481 26.713 39.265 39.265 0 0 1-19.633 22.91c-1.41.7-2.854 1.4-4.319 2.113-8.469 4.115-18.068 8.779-25.339 14.613-4.968 3.987-11.259 5.049-17.355 6.078a65.526 65.526 0 0 0-10.578 2.394c-3.717 1.293-9.237 1.652-15.1 2.034-13.356.875-28.495 1.867-29.169 14.015l-.006.055c-1.932 7.631-4.309 8.491-8.256 9.92a32.494 32.494 0 0 0-8.364 4.19c-3.519 2.456-7.715 4.165-11.793 5.826l-.495.2q-.743.3-1.471.6a13.2 13.2 0 0 1-1.425.489v.518a13.808 13.808 0 0 0 1.625-.543c.484-.2.974-.4 1.468-.6l.514-.21a60.507 60.507 0 0 0 11.871-5.871 32.148 32.148 0 0 1 8.259-4.135c4.092-1.48 6.562-2.375 8.564-10.29l.013-.1c.652-11.726 15.556-12.7 28.72-13.565 5.879-.383 11.432-.744 15.213-2.059a65.157 65.157 0 0 1 10.509-2.376c6.146-1.037 12.5-2.11 17.572-6.178 7.227-5.8 16.8-10.45 25.245-14.555a868.303 868.303 0 0 0 4.322-2.113 39.77 39.77 0 0 0 19.886-23.2 36.306 36.306 0 0 0-1.505-27.085c-2-4.145 1.295-8.746 4.794-13.629 4.428-6.179 9.446-13.182 4.455-20.745-3.131-4.741-1.4-12.924.289-20.869.911-4.3 1.771-8.355 1.789-11.68v-.378c0-7.812-1.079-21.873-3.963-26.343-5.112-7.931-8.94-17.129-12.64-26.022l-1.031-2.475c-2.961-7.085-3.186-12.05-.83-18.32a17.218 17.218 0 0 0-.631-12.644 150.386 150.386 0 0 0-18.678-27.478c-2.593-3.105-5.492-10.3-6.614-15.842h-.508c1.131 5.633 4.092 12.993 6.738 16.162zm88.023-13.373c5.86 10.414 11.92 21.184 14.89 32.047 1.448 5.294 3.7 8.354 6.089 11.593a65.213 65.213 0 0 1 3.688 5.4c2.534 4.234 2.492 8.926 2.448 13.892v.071a54.076 54.076 0 0 0 .317 7.839c.124.914.243 1.926.371 3.006.774 6.579 1.835 15.589 6.46 19.306a13.488 13.488 0 0 0 3.889 1.523c1.9.566 4.5 1.342 4.875 2.164.754 1.647 1.646 2.563 2.728 2.8a2.594 2.594 0 0 0 .558.061c1.57 0 3.1-1.383 4.579-2.724.547-.5 1.167-1.06 1.741-1.486a119.478 119.478 0 0 0 10.334-8.981l1.417-1.329c2.219-2.068 2.087-5.432 1.981-8.134v-.074c-.014-.375-.028-.74-.035-1.092a43.863 43.863 0 0 1 1.072-8.919l.148-.778a102.237 102.237 0 0 1 3.99-15.2c.625-1.772 1.367-3.556 2.084-5.281 1.6-3.853 3.259-7.835 3.829-12.108 1.242-9.274-1.317-19.228-3.584-28.044q-.271-1.05-.534-2.083L286.3 4.3a396.627 396.627 0 0 1-1.08-4.3h-.514a419.81 419.81 0 0 0 1.109 4.423l.5 1.953c.174.688.354 1.384.543 2.12 2.246 8.737 4.792 18.64 3.564 27.817-.562 4.208-2.206 8.16-3.8 11.984-.72 1.73-1.464 3.52-2.094 5.306a102.712 102.712 0 0 0-4.01 15.273l-.148.777a44.231 44.231 0 0 0-1.081 9.022c.007.354.021.723.036 1.1v.074c.1 2.6.229 5.837-1.822 7.749l-1.418 1.33a119.074 119.074 0 0 1-10.285 8.947c-.592.44-1.222 1.012-1.777 1.516-1.563 1.415-3.181 2.877-4.694 2.546-.918-.2-1.7-1.025-2.381-2.521-.437-.952-2.515-1.637-5.209-2.44a13.318 13.318 0 0 1-3.7-1.429c-4.465-3.588-5.513-12.48-6.278-18.984a164.198 164.198 0 0 0-.371-3 53.657 53.657 0 0 1-.312-7.766v-.077c.045-5.038.087-9.8-2.52-14.152a65.572 65.572 0 0 0-3.714-5.436c-2.358-3.2-4.586-6.224-6.009-11.429-2.98-10.922-9.055-21.719-14.935-32.161-.463-.823-.942-1.673-1.429-2.542h-.571l1.569 2.789zm11.281 1.872c1.735 3.64 3.887 8.311 5.616 12.064l.164.356c2.079 4.509 3.875 8.4 4.829 10.3a48.608 48.608 0 0 0 7.032 9.982c4.142 4.879 7.719 9.093 7.719 18v.417c-.087 7.977 3.386 12.934 6.193 16.942a26.818 26.818 0 0 1 2.524 4.054 16.652 16.652 0 0 1 1 3.9c.344 2 .615 3.58 1.829 3.926a1.525 1.525 0 0 0 .418.058c1.248 0 2.926-1.449 5.738-4.9 3.4-4.182 4.617-8.171 6.459-14.209l.02-.066c.238-.781.486-1.595.751-2.449a26.948 26.948 0 0 1 1.76-3.769c2.09-4.011 4.953-9.5 5.156-16.5.125-4.343-3.322-7.751-5.386-9.792a11 11 0 0 1-1.35-1.465c-.945-1.65-1.288-5.05-1.65-8.649a54.675 54.675 0 0 0-1.676-10.226c-.885-2.835-2.017-4.7-3.461-5.688-.989-.682-1.979-3.44-2.574-5.095-.163-.456-.312-.87-.442-1.2a4.159 4.159 0 0 0-.343-.652h-.6a4.28 4.28 0 0 1 .465.83c.129.328.276.736.439 1.193.69 1.924 1.637 4.559 2.758 5.332 1.349.927 2.417 2.7 3.268 5.424a54.369 54.369 0 0 1 1.657 10.128c.368 3.653.715 7.1 1.714 8.848a10.458 10.458 0 0 0 1.437 1.575c2 1.979 5.352 5.293 5.233 9.419-.2 6.882-3.031 12.317-5.1 16.286a27.142 27.142 0 0 0-1.794 3.851c-.266.855-.514 1.67-.752 2.452l-.02.065c-1.824 5.982-3.029 9.935-6.368 14.039-2.91 3.575-4.59 4.979-5.632 4.681-.911-.26-1.159-1.7-1.473-3.529a17.045 17.045 0 0 0-1.035-4.021 27.256 27.256 0 0 0-2.588-4.161c-2.749-3.924-6.17-8.808-6.085-16.623v-.424c0-9.094-3.632-13.373-7.845-18.335a48.212 48.212 0 0 1-6.959-9.875c-.95-1.887-2.744-5.777-4.821-10.283l-.164-.355c-1.729-3.755-3.882-8.429-5.619-12.07A37.969 37.969 0 0 1 223.555 0h-.525a39.293 39.293 0 0 0 1.72 4.661zm38.35 53.267a89.45 89.45 0 0 0 .065-2.736 9.235 9.235 0 0 0-.067-1.356c-.161-.939-.549-2.331-1-3.941-.937-3.364-2.1-7.552-2.1-10.762 0-4.13 2.018-5.074 3.711-5.139h.114c2.5 0 3.92 3.138 5.067 5.666.219.483.425.937.622 1.332a14.227 14.227 0 0 0 1.813 2.67 8.778 8.778 0 0 1 2.438 5.428c.025.315.037.626.037.928 0 2.864-1.092 4.756-2.248 6.758a39.74 39.74 0 0 0-1.008 1.813 26.878 26.878 0 0 0-1.372 3.777 18.952 18.952 0 0 1-2.047 5.014c-.531.708-1.3 1.586-2.15 1.586a1.234 1.234 0 0 1-.431-.078c-1.1-.4-1.549-2.257-1.549-6.4 0-1.429.052-2.945.1-4.284zm.491-4.177a9.567 9.567 0 0 1 .074 1.44c0 .765-.032 1.73-.065 2.753l-.009.269c-.046 1.335-.1 2.848-.1 4.268 0 3.745.388 5.631 1.221 5.936.531.189 1.188-.245 2.009-1.339a18.7 18.7 0 0 0 1.965-4.847 27.332 27.332 0 0 1 1.409-3.873c.338-.658.7-1.277 1.014-1.823 1.128-1.954 2.188-3.789 2.188-6.52 0-.288-.011-.587-.035-.889a8.313 8.313 0 0 0-2.3-5.122 14.816 14.816 0 0 1-1.9-2.792c-.2-.4-.408-.858-.628-1.345-1.089-2.4-2.439-5.376-4.617-5.376h-.091c-2.173.083-3.23 1.6-3.23 4.639 0 3.142 1.156 7.292 2.084 10.627.452 1.626.842 3.029 1.008 3.994zM62.574 27.711c2.641 1.68 7.173 2.746 12.025 3.889 8.96 2.105 19.116 4.492 19.116 11.683 0 .168-.006.336-.016.508-.108 1.693-1.606 1.938-4.042 2.2-4.937.53-12.4 1.333-10.617 20.218a31.51 31.51 0 0 0 2.313 8.169c.6 1.571 1.225 3.2 1.681 4.845 2.458 8.889-1.1 16.387-9.057 19.1-7.891 2.688-11.718 8.746-15.78 15.177a79.689 79.689 0 0 1-5.833 8.411C47.087 128.3 40.08 129.4 33.3 130.457a48.766 48.766 0 0 0-11.625 2.816c-9.2 3.9-15.169 5.3-21.678 4.617v.5a30.317 30.317 0 0 0 3.117.181c5.459 0 10.96-1.532 18.756-4.834a48.341 48.341 0 0 1 11.507-2.783c6.869-1.074 13.971-2.186 19.37-8.724a80.178 80.178 0 0 0 5.88-8.479c4-6.338 7.785-12.323 15.508-14.955 8.231-2.807 11.913-10.542 9.378-19.707-.462-1.672-1.089-3.309-1.7-4.9a31.066 31.066 0 0 1-2.277-8.023C77.8 47.766 84.968 47 89.711 46.485c2.235-.238 4.346-.463 4.487-2.665.011-.183.017-.36.017-.538 0-7.586-10.36-10.021-19.556-12.182-4.755-1.12-9.247-2.178-11.816-3.812C52.31 20.595 47.562 10.31 44.916 0H44.4c2.663 10.451 7.458 20.9 18.174 27.711zm241.16 352.516l-.135.077c-1.19.684-2.313 1.328-3.4 1.988a29.7 29.7 0 0 0-5.559 4.735 42.346 42.346 0 0 1-3.86 3.566c-.9.7-1.843 1.36-2.783 2.015a28.529 28.529 0 0 0-5.486 4.537c-.806.93-1.6 1.888-2.378 2.854h.643c.7-.854 1.4-1.7 2.113-2.526a28.231 28.231 0 0 1 5.418-4.473c.922-.641 1.875-1.3 2.782-2.014a42.957 42.957 0 0 0 3.909-3.61 29.256 29.256 0 0 1 5.461-4.658c1.081-.657 2.2-1.3 3.389-1.982l.136-.078c4.6-2.638 9.36-5.365 12.645-9.206a27.513 27.513 0 0 0 3.371-5.108v-1.111a28.232 28.232 0 0 1-3.75 5.9c-3.229 3.767-7.95 6.476-12.516 9.094zM3.881 392.457c4.041-1.078 7.2-.671 9.944 1.276 1.711 1.213 2.6 2.3 2.812 3.422A4.307 4.307 0 0 1 15.96 400h.564a4.507 4.507 0 0 0 .6-2.936c-.231-1.258-1.189-2.445-3.014-3.739-2.874-2.04-6.166-2.469-10.362-1.351A24.972 24.972 0 0 0 0 393.351v.549a25.092 25.092 0 0 1 3.881-1.443zM.31 397.585c2.673-.714 4.764-.445 6.583.847A5.38 5.38 0 0 1 8.471 400h.579a5.406 5.406 0 0 0-1.868-1.977c-1.95-1.384-4.175-1.678-7-.921-.062.016-.12.053-.181.073v.537a3.054 3.054 0 0 1 .309-.127zm317.2-271.042l-.182.259a34.249 34.249 0 0 0-2.665 4.169 35.76 35.76 0 0 1-2.207 3.588l-.08.119c-.189.282-.379.566-.567.854a27.951 27.951 0 0 1-5.245 5.457c-.765.666-1.557 1.354-2.308 2.065a19.03 19.03 0 0 1-4.746 2.983 24.584 24.584 0 0 0-4.432 2.637c-6.085 4.88-12.758 10.8-16.109 17.678a376.582 376.582 0 0 0-1.511 3.153c-2.659 5.606-4.955 10.448-9.361 15.171-.742.8-1.464 1.556-2.167 2.3-4.694 4.934-8.4 8.831-10.984 15.9a134.316 134.316 0 0 0-1.453 4.3c-1.409 4.339-2.866 8.826-5.5 12.281-2.23 2.921-4.254 6.046-6.229 9.094a111.857 111.857 0 0 1-8.022 11.324 35.447 35.447 0 0 1-3.1 3.113 22.607 22.607 0 0 0-4.8 5.527 55.67 55.67 0 0 0-3.785 9.467l-.294.883a98.819 98.819 0 0 1-11.341 23.613c-1.346 2.093-2.559 4.307-3.731 6.448l-.088.161a148.35 148.35 0 0 1-2.357 4.192c-.229.387-.454.775-.679 1.165l-.054.094c-1.648 2.845-3.2 5.531-5.666 7.321-1.3.946-2.564 1.9-3.678 2.747l-.079.06a201.665 201.665 0 0 1-3.6 2.683 226.378 226.378 0 0 1-4.207 2.945c-2.271 1.563-4.618 3.177-6.853 4.939a98.479 98.479 0 0 1-13.945 8.738q-1.716.943-3.448 1.915c-5.809 3.271-9.477 8.179-13.366 13.382-.767 1.026-1.559 2.086-2.365 3.129q-.712.924-1.407 1.839l-.253.332c-4.023 5.27-7.824 10.247-12.717 14.864a107.922 107.922 0 0 0-9.063 10.117c-2.244 2.73-4.563 5.553-7.071 8.142-4.524 4.666-9.353 9.471-14.266 12.446a83.481 83.481 0 0 1-9.073 4.513A73.6 73.6 0 0 0 82.061 400h.924a78.9 78.9 0 0 1 9.68-4.891 84.074 84.074 0 0 0 9.122-4.539c4.964-3.007 9.819-7.837 14.366-12.526 2.521-2.6 4.848-5.434 7.118-8.2a107.194 107.194 0 0 1 9-10.048c4.922-4.645 8.734-9.638 12.792-14.952l.232-.3 1.406-1.837c.808-1.045 1.6-2.106 2.375-3.143 3.851-5.151 7.488-10.018 13.205-13.237 1.152-.65 2.3-1.284 3.48-1.933a98.61 98.61 0 0 0 13.977-8.764c2.222-1.752 4.563-3.362 6.826-4.92 1.384-.953 2.815-1.938 4.216-2.953 1.215-.879 2.43-1.8 3.6-2.688l.079-.06c1.112-.843 2.373-1.8 3.67-2.741 2.547-1.852 4.129-4.583 5.8-7.476l.054-.094c.224-.388.448-.775.676-1.161.817-1.382 1.6-2.817 2.365-4.206l.089-.162c1.168-2.133 2.376-4.339 3.713-6.416a99.355 99.355 0 0 0 11.4-23.727l.294-.884a55.289 55.289 0 0 1 3.749-9.384 22.222 22.222 0 0 1 4.7-5.4 35.986 35.986 0 0 0 3.142-3.158 112.358 112.358 0 0 0 8.076-11.4c1.952-3.014 3.971-6.13 6.189-9.036 2.689-3.522 4.159-8.051 5.582-12.43.437-1.345.931-2.868 1.447-4.286 2.547-6.976 6.223-10.84 10.877-15.732.7-.74 1.427-1.5 2.17-2.3 4.459-4.78 6.771-9.654 9.447-15.3.488-1.027.986-2.075 1.509-3.149 3.308-6.793 9.931-12.661 15.973-17.506a24.1 24.1 0 0 1 4.344-2.58 19.419 19.419 0 0 0 4.865-3.067c.743-.7 1.531-1.389 2.305-2.062a28.264 28.264 0 0 0 5.321-5.548q.282-.429.565-.851l.08-.119a36.277 36.277 0 0 0 2.237-3.638 33.93 33.93 0 0 1 2.627-4.108l.183-.26a27.824 27.824 0 0 0 2.092-3.44v-1.13a27.445 27.445 0 0 1-2.492 4.285zm-11.373 27.074c-4.585 2.095-8.916 4.073-11.973 9.388a89.26 89.26 0 0 0-4.977 10.743 79.85 79.85 0 0 1-5.534 11.654c-3.765 6.119-8.437 11.7-12.957 17.1l-.584.7a86.759 86.759 0 0 0-13.129 21.674c-2.921 6.843-6.525 11.009-12.153 16.3-6.277 5.9-8.431 14.415-10.332 21.933-4.84 19.146-11.786 32.408-22.522 43-3.6 3.555-8.369 5.492-12.979 7.365-1.949.792-3.965 1.611-5.867 2.545a83.357 83.357 0 0 1-9.9 3.855 73.435 73.435 0 0 0-11.317 4.582c-6.61 3.571-10.942 9.7-14.64 15.8-3.873 6.381-8.418 11.652-13.241 17.247q-.915 1.059-1.835 2.131c-3.163 3.689-6.568 7.076-9.9 10.391-1.836 1.826-3.735 3.714-5.605 5.664q-.812.848-1.617 1.693l-.2.209c-5.2 5.459-10.113 10.614-16.225 14.817A85.462 85.462 0 0 1 94.048 400h1.243a80.849 80.849 0 0 0 13.634-7.182c6.155-4.232 11.085-9.406 16.3-14.884l.2-.209q.806-.847 1.616-1.693c1.866-1.945 3.763-3.831 5.637-5.7 3.3-3.281 6.714-6.675 9.89-10.379a633.74 633.74 0 0 1 1.846-2.145c4.826-5.6 9.383-10.884 13.278-17.3 3.66-6.033 7.944-12.1 14.449-15.616a73.269 73.269 0 0 1 11.278-4.561 83.627 83.627 0 0 0 9.925-3.867c1.886-.927 3.894-1.742 5.835-2.531 4.656-1.892 9.471-3.848 13.143-7.473 10.8-10.66 17.791-23.994 22.657-43.24 1.883-7.444 4.018-15.882 10.188-21.686 5.677-5.341 9.314-9.547 12.271-16.47A86.262 86.262 0 0 1 270.5 203.52l.586-.7c4.53-5.41 9.213-11 13-17.155a80.259 80.259 0 0 0 5.571-11.727 88.712 88.712 0 0 1 4.947-10.683c2.977-5.177 7.237-7.123 11.751-9.185 1.357-.62 2.9-1.322 4.409-2.13a48.207 48.207 0 0 0 9.236-6.424v-.657a47.621 47.621 0 0 1-9.479 6.64c-1.499.801-3.03 1.501-4.385 2.118zM27.252 8.147c-.226 4.779 2.5 18.507 3.624 23.163 1.757 7.29 11.745 7.89 19.773 8.367 6.175.367 11.053.657 11.053 3.688 0 7.386-4.421 9.188-7.979 10.638-2.468 1.007-4.6 1.877-4.6 4.354 0 2.285 0 7.039-3.807 10.808-4.049 4.012-11.259 5.712-21.441 5.058-8.183-.529-17.948-6.146-23.219-13.358A9.871 9.871 0 0 0 0 60.072v.776c.083.1.177.209.252.312C5.6 68.482 15.524 74.185 23.843 74.719q2.136.138 4.1.138c8.19 0 14.142-1.79 17.724-5.338 3.955-3.915 3.955-8.811 3.955-11.163 0-2.141 1.8-2.875 4.294-3.893 3.691-1.5 8.285-3.377 8.285-11.1 0-3.5-5.085-3.8-11.526-4.187-7.861-.468-17.644-1.05-19.314-7.983-1.117-4.636-3.833-18.293-3.61-23.022A26.618 26.618 0 0 0 26.715 0H26.2a26.348 26.348 0 0 1 1.052 8.147zm57.842 9.018c1.92 1.579 4.258 3.258 6.742 5.041 8.634 6.2 19.38 13.905 21.209 24.023a2.162 2.162 0 0 1 .033.366c0 1.912-2.892 3.217-6.558 4.87-4.979 2.246-11.176 5.042-12.83 10.589-.825 2.762 2.216 5.789 5.436 8.994 2.844 2.833 5.785 5.762 6.044 8.663l.027.093c2.978 5.751 4.566 16.59 2.086 22.948-1.275 3.289-3.643 4.835-5.933 6.33a17.872 17.872 0 0 0-4.736 3.973c-3.486 4.516-7.292 15.488-7.964 21.3-.55 4.798-4.042 11.045-6.85 16.065-.946 1.693-1.924 3.444-2.612 4.854-6.083 12.454-12.226 19.918-27.244 23.688-2.333.589-5.752-.894-9.387-2.468-3.5-1.517-7.124-3.082-9.5-2.5-3.163.776-7.082 3.545-10.872 6.223-3.493 2.471-6.793 4.8-9.611 5.755-2.3.779-4.839 5.069-7.293 9.218A45.393 45.393 0 0 1 0 202.983v.7c1.879-1.765 3.752-4.93 5.714-8.246 2.407-4.069 4.9-8.278 7.022-9 2.887-.976 6.216-3.329 9.74-5.821 3.752-2.65 7.632-5.392 10.7-6.145 2.216-.542 5.757.991 9.2 2.482 3.7 1.6 7.185 3.114 9.69 2.486 15.207-3.817 21.422-11.364 27.571-23.954.682-1.4 1.657-3.141 2.6-4.828 2.827-5.059 6.344-11.354 6.908-16.249.664-5.752 4.422-16.6 7.862-21.055a17.493 17.493 0 0 1 4.615-3.859c2.356-1.538 4.792-3.128 6.125-6.567 2.522-6.466.927-17.458-2.085-23.315-.3-3.065-3.293-6.043-6.185-8.923-3.11-3.1-6.049-6.022-5.309-8.5 1.588-5.327 7.669-8.071 12.56-10.277 3.826-1.726 6.848-3.089 6.848-5.324a2.632 2.632 0 0 0-.041-.454c-1.865-10.318-12.7-18.094-21.418-24.348-2.469-1.772-4.8-3.446-6.708-5.016-4.675-3.847-8.833-9.835-11.79-16.77h-.544c2.994 7.092 7.238 13.224 12.019 17.165zm22.473 5.358a336.754 336.754 0 0 0 2.507 3.1l.14.173c4.74 5.826 9.642 11.852 12.758 18.875 1.819 4.1-.008 8.183-1.777 12.143l-.027.06c-1.371 3.067-2.789 6.239-2.612 9.526.212 4.177 2.471 9.247 4.665 14.171 2.222 4.989 4.519 10.147 4.692 14.434q.026.637.025 1.261c0 6.065-1.763 11.4-3.637 17.058-.574 1.735-1.167 3.529-1.7 5.333-.443 1.491-.9 2.926-1.344 4.314l-.068.212c-2.083 6.517-3.881 12.145-3.433 19.682.2 3.367 1.585 6.371 2.929 9.283 1.556 3.367 3.165 6.848 2.892 10.877-.4 5.872-3.435 10.181-6.376 14.35a40.038 40.038 0 0 0-5.423 9.424c-.288.8-.575 1.619-.871 2.462-2.431 6.926-5.185 14.775-10.918 19.54a50.547 50.547 0 0 1-7.174 4.75 40.087 40.087 0 0 0-8.632 6.108c-1.074 1.06-2.124 2.164-3.14 3.231l-.051.054c-4.859 5.105-9.449 9.929-16.862 10.858-5.871.733-11.406.043-16.76-.626-8.709-1.089-16.937-2.115-26.083 2.741a44.583 44.583 0 0 0-8.382 6.285 50.256 50.256 0 0 1-7.116 5.551A10.589 10.589 0 0 1 0 248.878v.5a10.96 10.96 0 0 0 6.045-1.194 50.777 50.777 0 0 0 7.2-5.614 44.137 44.137 0 0 1 8.273-6.208c9.007-4.781 17.157-3.763 25.789-2.687 5.382.673 10.946 1.368 16.882.626 7.59-.952 12.239-5.837 17.167-11.016l.046-.048a144.815 144.815 0 0 1 3.129-3.221 39.733 39.733 0 0 1 8.543-6.038 50.885 50.885 0 0 0 7.231-4.791c5.84-4.854 8.619-12.772 11.077-19.777.29-.823.576-1.64.864-2.44a39.669 39.669 0 0 1 5.363-9.307c2.979-4.223 6.059-8.59 6.465-14.6.282-4.156-1.354-7.7-2.94-11.127-1.32-2.863-2.686-5.823-2.88-9.1-.443-7.444 1.343-13.031 3.411-19.5l.068-.213c.443-1.39.9-2.828 1.347-4.324.53-1.8 1.123-3.586 1.7-5.336 1.88-5.683 3.657-11.05 3.656-17.2 0-.422-.008-.85-.025-1.28-.177-4.382-2.494-9.586-4.744-14.638-2.166-4.861-4.406-9.889-4.614-13.974-.169-3.167 1.223-6.283 2.57-9.3l.029-.066c1.811-4.053 3.684-8.244 1.775-12.543-3.143-7.084-8.066-13.136-12.827-18.987l-.14-.173a320.456 320.456 0 0 1-2.5-3.1C102.609 15.509 97.2 8.313 94.121 0h-.53c3.091 8.453 8.564 15.742 13.976 22.523zM88.795 376.966a20.732 20.732 0 0 0 1.052-7.477c0-.564-.008-1.127-.021-1.677a17.608 17.608 0 0 0-2.178-9.106c-3.146-5.458-8.015-7.752-12.73-9.974l-.532-.251c-1.216-.573-16.12-2.6-22.448-1.359a38.6 38.6 0 0 0-6.9 2.226 44.607 44.607 0 0 1-4.755 1.679c-.727.2-1.478.429-2.232.662l-.134.042c-.815.253-1.659.515-2.457.717a10.787 10.787 0 0 1-2.482.152 26.226 26.226 0 0 0-2.937.1c-1.31.132-2.457.177-3.671.225l-1.4.06c-5.038.237-11.308.531-16.145 3.307a20.9 20.9 0 0 1-8.245 2.742l-.58.088v.506l.659-.1a21.315 21.315 0 0 0 8.417-2.8c4.731-2.715 10.935-3.006 15.923-3.24l1.394-.06c1.222-.048 2.375-.094 3.7-.227a26.275 26.275 0 0 1 2.928-.1 11.057 11.057 0 0 0 2.564-.168 49.303 49.303 0 0 0 2.482-.724l.163-.05a58.683 58.683 0 0 1 2.186-.649 44.958 44.958 0 0 0 4.836-1.707 38.183 38.183 0 0 1 6.782-2.189c6.252-1.219 20.944.758 22.139 1.322l.539.254c4.639 2.186 9.436 4.445 12.5 9.768a17.157 17.157 0 0 1 2.111 8.868c.013.546.021 1.1.021 1.665a20.313 20.313 0 0 1-1.012 7.281 28.592 28.592 0 0 1-4.915 6.99 36.005 36.005 0 0 0-6.346 9.285 25.719 25.719 0 0 0-.861 2.45c-.232.737-.451 1.435-.739 2.117A14.819 14.819 0 0 1 74.2 400h.593a15.4 15.4 0 0 0 1.141-2.193c.3-.7.519-1.411.772-2.217a24.828 24.828 0 0 1 .827-2.347 35.636 35.636 0 0 1 6.266-9.158 28.917 28.917 0 0 0 4.996-7.119zm-71.545 9.588h2.009a21.477 21.477 0 0 0 4.992-1.213c4.875-1.526 10.942-3.428 12.387.905a8.717 8.717 0 0 1 .458 2.771c0 3.872-2.678 7.17-4.972 8.816a35.36 35.36 0 0 0-2.7 2.167h.758c.708-.6 1.444-1.192 2.236-1.761 2.39-1.716 5.18-5.161 5.18-9.223a9.223 9.223 0 0 0-.483-2.929c-1.6-4.8-7.928-2.816-13.014-1.223a21.445 21.445 0 0 1-4.84 1.188h-2.019c-5.607-.016-10.038-.018-15.911 2.215-.439.167-.886.311-1.331.461v.529c.5-.168 1.01-.334 1.508-.523 5.787-2.197 10.178-2.194 15.742-2.18zm287.436-186.095c-.882 3.774-8.894 11.8-14.2 17.11l-.081.081c-1.681 1.687-3.133 3.144-3.936 4.054-8.75 9.92-11.812 20.876-14.273 29.681-1.348 4.82-2.512 8.984-4.313 11.514q-1.054 1.479-2.146 2.992c-7.645 10.608-16.311 22.633-16.866 37.137-.31 8.046.636 12.128 3.065 13.235 3.293 1.5 8.121-3.274 13.718-8.8 5.2-5.137 11.079-10.936 15.272-10.7a4.137 4.137 0 0 1 3.058 1.724c2.888 3.622 3.142 7.158 3.388 10.589.279 3.917.543 7.616 4.553 10.914a7.776 7.776 0 0 0 5.05 1.909c6.464 0 13.214-8.028 17.619-13.269.494-.589.955-1.137 1.378-1.63a30.859 30.859 0 0 1 4.028-3.847v-.637a31.851 31.851 0 0 0-4.4 4.156c-.424.5-.887 1.045-1.381 1.635-5.458 6.493-14.592 17.364-21.969 11.294-3.844-3.161-4.1-6.756-4.372-10.575-.251-3.5-.511-7.109-3.5-10.854a4.609 4.609 0 0 0-3.417-1.91c-.1-.006-.2-.009-.3-.009-4.37 0-10.2 5.758-15.356 10.853-5.462 5.4-10.177 10.057-13.157 8.7-2.188-1-3.069-5.053-2.772-12.761.549-14.354 9.167-26.312 16.771-36.863q1.089-1.515 2.147-2.994c1.853-2.6 3.027-6.8 4.388-11.671 2.447-8.755 5.492-19.65 14.167-29.484.793-.9 2.24-2.35 3.916-4.031l.08-.08c5.342-5.351 13.414-13.437 14.329-17.351 2.061-8.834 8.4-9.265 14.827-8.438v-.506c-6.627-.85-13.162-.398-15.315 8.832zm10.368 36.96a11.9 11.9 0 0 0 .933 4.893c1.087 2.419 2.435 3.946 4.014 4.551v-.552c-1.375-.6-2.571-2.007-3.558-4.2a11.4 11.4 0 0 1-.889-4.687c0-4.647 2-9.981 3.866-13.423.192-.352.385-.694.581-1.03v-.972c-.345.567-.686 1.15-1.02 1.764-1.899 3.49-3.928 8.915-3.928 13.656zM302.29 375.378a64.676 64.676 0 0 0-11.049 8 332.99 332.99 0 0 1-3.388 3.207l-.266.249c-4.431 4.14-9.005 8.422-12.308 13.163h.618c3.256-4.585 7.709-8.76 12.031-12.8l.266-.25c1.177-1.1 2.3-2.15 3.394-3.212a64.359 64.359 0 0 1 10.969-7.94c7.177-4.459 14.6-9.073 17.443-18.6v-1.85c-.148.538-.29 1.078-.447 1.614-2.772 9.415-10.137 13.991-17.263 18.419zM235.4 358c-1.148 2.167-2.14 4.451-3.1 6.66l-.031.07c-1.675 3.864-3.407 7.859-5.979 11.225a93.9 93.9 0 0 1-9.352 10.029l-.127.123c-.927.9-1.853 1.8-2.765 2.712-3.137 3.13-5.371 7.163-7.467 11.179h.564c2.041-3.9 4.229-7.8 7.256-10.825.911-.907 1.835-1.806 2.761-2.707l.13-.127a94.14 94.14 0 0 0 9.4-10.081c2.609-3.412 4.354-7.437 6.041-11.328l.03-.07c.955-2.2 1.943-4.476 3.081-6.625 5.121-9.666 14.816-21.026 25.286-21.23h.227a17.836 17.836 0 0 1 13.15 6.847c2.911 3.96 4.387 7.851 4.387 11.565a13.148 13.148 0 0 1-.536 3.731 46.673 46.673 0 0 0-1.359 7.693 39.607 39.607 0 0 1-1.769 8.92c-2.134 5.823-9.746 12.614-13.841 16.269-2.649 2.362-5.883 3.485-9.011 4.57l-.072.025c-1.385.483-2.817.983-4.19 1.587a20.934 20.934 0 0 0-3.132 1.788h.9a18.65 18.65 0 0 1 2.43-1.331c1.355-.595 2.778-1.091 4.154-1.571l.072-.025c3.174-1.1 6.456-2.241 9.187-4.676 4.122-3.678 11.794-10.522 13.971-16.464a39.978 39.978 0 0 0 1.795-9.033 46.315 46.315 0 0 1 1.342-7.609 13.657 13.657 0 0 0 .556-3.874c0-3.823-1.508-7.814-4.483-11.862-3.024-4.118-8.961-7.175-13.791-7.048-10.69.207-20.536 11.709-25.715 21.493zM51.451 375.361c-2.745-.96-7.442-.338-13.962 1.86l-.143.048c-.183.062-.31.1-.37.121-5.368 1.438-10.815.38-16.61-.748a63.6 63.6 0 0 0-10.926-1.473c-4.883-.065-7.483.9-9.44 2.036v.58c1.929-1.16 4.484-2.2 9.431-2.116a63.364 63.364 0 0 1 10.869 1.47c5.824 1.134 11.325 2.205 16.808.733.067-.019.2-.063.4-.128l.144-.048c6.413-2.163 11-2.79 13.637-1.862a14.189 14.189 0 0 1 8.117 8.538 12.2 12.2 0 0 1 .725 4.054 9.684 9.684 0 0 1-1.23 4.816c-1.611 2.857-4.825 5.167-6.6 6.289-.254.16-.544.316-.848.469h1.031c.026-.016.059-.031.085-.047 1.812-1.146 5.1-3.512 6.766-6.465a10.176 10.176 0 0 0 1.295-5.062 12.708 12.708 0 0 0-.753-4.221 14.709 14.709 0 0 0-8.426-8.844zm142.59-47.09a23.922 23.922 0 0 0-10.516 1.027 74.51 74.51 0 0 1-4.894 1.492c-4.031 1.09-8.2 2.216-11.852 5.507-1.44 1.3-2.834 2.724-4.211 4.135l-.045.047c-.8.822-1.63 1.671-2.452 2.475-4.253 4.156-6.357 9.611-8.392 14.887a71.866 71.866 0 0 1-3.689 8.465c-1.41 2.589-3.67 4.071-6.066 5.643-.89.584-1.9 1.245-2.847 1.972a40.562 40.562 0 0 0-5.8 5.928c-1.187 1.389-2.416 2.824-3.7 4.062a71 71 0 0 1-11.313 8.5c-.681.442-1.351.887-2.016 1.329a51.809 51.809 0 0 1-7.733 4.524 40.8 40.8 0 0 1-4.859 1.736h1.675a35.6 35.6 0 0 0 3.391-1.275 52.17 52.17 0 0 0 7.807-4.565c.664-.44 1.332-.885 2.011-1.325a71.389 71.389 0 0 0 11.389-8.565c1.3-1.253 2.534-2.7 3.749-4.119a40.087 40.087 0 0 1 5.706-5.833c.934-.715 1.934-1.371 2.82-1.952 2.446-1.6 4.757-3.12 6.228-5.82a72.33 72.33 0 0 0 3.716-8.523c2.015-5.226 4.1-10.628 8.274-14.709.825-.807 1.655-1.658 2.46-2.482l.075-.077c1.342-1.375 2.729-2.8 4.159-4.083 3.563-3.211 7.673-4.321 11.662-5.4a72.973 72.973 0 0 0 4.911-1.5 23.168 23.168 0 0 1 7.392-1.189 22.1 22.1 0 0 1 2.9.186c5.038.661 8.181 2.315 9.609 5.058a21.238 21.238 0 0 1 2.114 8.49 7.969 7.969 0 0 1-.225 2 18.188 18.188 0 0 1-2.935 5.237c-.455.609-.9 1.267-1.339 1.9l-.052.076a35.96 35.96 0 0 1-2.366 3.208 27.919 27.919 0 0 1-6.028 4.751 45.321 45.321 0 0 0-3.826 2.681c-.91.74-1.9 1.442-2.85 2.12l-.1.073c-2.421 1.719-4.924 3.5-6.606 6.1a18.263 18.263 0 0 0-2.272 6.612 30.113 30.113 0 0 1-1.05 4.12c-1.323 3.7-3.045 7.91-5.791 11.03a65.475 65.475 0 0 1-6.227 5.924l-.051.045c-.681.593-1.37 1.2-2.054 1.813h.746c.546-.484 1.1-.964 1.636-1.436l.051-.045a65.753 65.753 0 0 0 6.274-5.971c2.8-3.183 4.548-7.444 5.887-11.192a30.925 30.925 0 0 0 1.07-4.188 17.881 17.881 0 0 1 2.2-6.44c1.629-2.52 4.093-4.268 6.479-5.961l.1-.072c.96-.683 1.953-1.389 2.875-2.139a44.6 44.6 0 0 1 3.783-2.649 28.307 28.307 0 0 0 6.135-4.845 36.321 36.321 0 0 0 2.4-3.256l.049-.072c.432-.631.878-1.284 1.327-1.886a18.628 18.628 0 0 0 3.018-5.409 8.449 8.449 0 0 0 .242-2.123 21.813 21.813 0 0 0-2.171-8.721c-1.514-2.902-4.781-4.646-9.992-5.331z"/></svg>